#!OML:ASF F:\VICON\USERDATA\INSTALL\rory3\rory3.ASF
:FULLY-SPECIFIED
:DEGREES
3002
root 0.55703 15.8501 -0.30257 -2.55055 32.1283 -8.58595
lowerback 18.0456 6.7283 -6.13827
upperback 9.40412 8.01602 -7.56204
thorax 0.496386 4.13479 -6.03317
lowerneck -10.0863 -9.48929 -16.2326
upperneck 12.5557 -13.5422 20.228
head 8.13073 -5.90623 7.94876
rclavicle -3.18055e-014 6.20208e-014
rhumerus 103.907 27.6187 -735.9
rradius -0.0887385
rwrist 659.958
rhand -16.885 2.5657
rfingers 7.12502
rthumb 9.3463 -27.2071
lclavicle -3.18055e-014 6.20208e-014
lhumerus 60.6807 6.21896 111.111
lradius 13.7767
lwrist 40.5856
lhand -11.5482 36.4063
lfingers 7.12502
lthumb 14.4923 65.8802
rfemur 0.959424 -9.7157 24.4447
rtibia 18.4654
rfoot -17.858 -22.8309
rtoes -2.97832
lfemur -20.7879 -24.0219 -8.24723
ltibia 33.14
lfoot -9.14897 -9.30479
ltoes -6.32612
3003
root 0.562837 15.8515 -0.306373 -2.74096 31.6665 -8.55648
lowerback 17.8521 6.75528 -5.92918
upperback 9.29724 8.09108 -7.6035
thorax 0.514905 4.1795 -6.18656
lowerneck -9.78786 -9.53044 -15.8525
upperneck 12.378 -13.6712 20.2136
head 8.01505 -5.97134 7.86269
rclavicle 1.39944e-013 -7.31528e-014
rhumerus 102.451 28.007 -738.342
rradius 0.0497883
rwrist 662.111
rhand -17.1498 2.81758
rfingers 7.12502
rthumb 9.09075 -26.9665
lclavicle 1.39944e-013 -7.31528e-014
lhumerus 60.5725 5.35299 109.857
lradius 13.8998
lwrist 41.7135
lhand -11.7481 36.5027
lfingers 7.12502
lthumb 14.2997 65.9903
rfemur 1.24937 -9.33983 24.3957
rtibia 18.2917
rfoot -17.8558 -22.7884
rtoes -2.51511
lfemur -20.3231 -23.7417 -8.40931
ltibia 33.0504
lfoot -9.26186 -9.13528
ltoes -6.75526
3004
root 0.569671 15.8525 -0.308444 -2.96508 31.2599 -8.53596
lowerback 17.6493 6.67673 -5.75673
upperback 9.19588 8.02322 -7.59498
thorax 0.520993 4.14837 -6.23921
lowerneck -9.72528 -9.51798 -15.8656
upperneck 12.4585 -13.6972 20.3498
head 8.04774 -5.97664 7.91541
rclavicle -1.41535e-013 7.95139e-014
rhumerus 101.289 28.5159 -740.636
rradius 0.0996206
rwrist 664.286
rhand -17.3635 3.0709
rfingers 7.12502
rthumb 8.88462 -26.722
lclavicle -1.41535e-013 7.95139e-014
lhumerus 60.617 5.00601 109.168
lradius 14.1824
lwrist 42.3026
lhand -12.0855 36.7357
lfingers 7.12502
lthumb 13.9746 66.246
rfemur 1.57841 -9.04324 24.3393
rtibia 18.1557
rfoot -17.8046 -22.7415
rtoes -2.33143
lfemur -19.8388 -23.4722 -8.58197
ltibia 32.9621
lfoot -9.3466 -9.0387
ltoes -7.02516
3005
root 0.57552 15.8521 -0.314284 -3.18155 30.9308 -8.53601
lowerback 17.4034 6.51334 -5.78354
upperback 9.1244 7.81905 -7.40007
thorax 0.516176 4.03197 -5.95121
lowerneck -9.88823 -9.42502 -16.0311
upperneck 12.6837 -13.5371 20.2568
head 8.12184 -5.89936 7.93642
rclavicle -9.54166e-014 5.725e-014
rhumerus 100.57 29.0195 -742.589
rradius 0.203137
rwrist 666.28
rhand -17.6083 3.01803
rfingers 7.12502
rthumb 8.64839 -26.7848
lclavicle -9.54166e-014 5.725e-014
lhumerus 60.8609 5.31709 109.228
lradius 14.3117
lwrist 42.3574
lhand -12.4896 36.7716
lfingers 7.12502
lthumb 13.5852 66.3083
rfemur 1.80234 -8.88436 24.2918
rtibia 18.1454
rfoot -17.5869 -22.7161
rtoes -2.84274
lfemur -19.3997 -23.2306 -8.72014
ltibia 32.8075
lfoot -9.23952 -9.03266
ltoes -6.52833
3006
root 0.582296 15.8515 -0.323311 -3.24831 30.5897 -8.38819
lowerback 17.0181 6.30126 -6.14441
upperback 9.10937 7.52308 -7.12338
thorax 0.590171 3.85265 -5.35892
lowerneck -10.3374 -9.29062 -16.1184
upperneck 13.0363 -13.2557 19.8584
head 8.23357 -5.7628 7.8452
rclavicle 7.95139e-015 -5.725e-014
rhumerus 100.276 29.5372 -744.269
rradius 0.4662
rwrist 668.29
rhand -17.8285 2.5477
rfingers 7.12502
rthumb 8.43586 -27.2638
lclavicle 7.95139e-015 -5.725e-014
lhumerus 61.2588 5.91939 109.337
lradius 14.2586
lwrist 42.458
lhand -12.6627 36.4907
lfingers 7.12502
lthumb 13.4183 66.0386
rfemur 1.87945 -8.81784 24.0891
rtibia 18.255
rfoot -17.4732 -22.5596
rtoes -3.4247
lfemur -19.0045 -23.03 -8.97034
ltibia 32.5758
lfoot -9.18264 -8.92565
ltoes -6.3777
3007
root 0.59161 15.8536 -0.324774 -3.01706 30.2091 -7.73596
lowerback 16.6307 6.3742 -6.60515
upperback 8.67652 7.54088 -7.2646
thorax 0.287035 3.84404 -5.24534
lowerneck -9.07976 -9.04639 -15.6319
upperneck 12.9114 -13.0974 19.7331
head 7.8828 -5.74321 7.77863
rclavicle 1.11319e-014 -2.22639e-014
rhumerus 98.645 30.5191 -747.025
rradius 0.497868
rwrist 670.54
rhand -18.1391 2.4376
rfingers 7.12502
rthumb 8.13607 -27.3858
lclavicle 1.11319e-014 -2.22639e-014
lhumerus 60.0712 5.11496 107.243
lradius 14.846
lwrist 44.3759
lhand -12.8333 36.6074
lfingers 7.12502
lthumb 13.2539 66.166
rfemur 1.94885 -8.74726 23.3962
rtibia 18.3681
rfoot -17.3921 -22.3092
rtoes -3.81013
lfemur -18.5502 -22.9207 -9.7089
ltibia 32.3213
lfoot -9.15285 -8.69278
ltoes -5.98656
3008
root 0.598096 15.8543 -0.323294 -2.94288 29.7592 -7.21006
lowerback 16.363 6.41932 -6.89482
upperback 8.53464 7.57132 -7.32118
thorax 0.247836 3.84817 -5.13113
lowerneck -9.04996 -9.04198 -15.6066
upperneck 13.1618 -13.1325 19.7201
head 7.9618 -5.75431 7.77244
rclavicle 1.59028e-014 8.90555e-014
rhumerus 97.2024 30.932 -749.403
rradius 0.617752
rwrist 672.621
rhand -18.0731 2.69314
rfingers 7.12502
rthumb 8.19979 -27.1277
lclavicle 1.59028e-014 8.90555e-014
lhumerus 60.2201 5.0179 107.35
lradius 14.3286
lwrist 44.1402
lhand -12.6431 36.5999
lfingers 7.12502
lthumb 13.4372 66.1465
rfemur 2.11017 -8.44972 22.8563
rtibia 18.4639
rfoot -17.4084 -22.1546
rtoes -3.88803
lfemur -17.9806 -22.8031 -10.3439
ltibia 32.0693
lfoot -9.17363 -8.43871
ltoes -5.57712
3009
root 0.60225 15.8544 -0.326159 -3.22228 29.2445 -7.30165
lowerback 16.2403 6.57179 -6.50554
upperback 8.45821 7.8286 -7.20276
thorax 0.266176 3.98435 -5.24658
lowerneck -9.00447 -9.22383 -15.6805
upperneck 13.2248 -13.4076 19.7913
head 8.03977 -5.88499 7.77215
rclavicle 1.04958e-013 -2.8625e-014
rhumerus 95.2835 30.9023 -751.689
rradius 0.866645
rwrist 674.468
rhand -17.8445 2.89986
rfingers 7.12502
rthumb 8.42045 -26.9123
lclavicle 1.04958e-013 -2.8625e-014
lhumerus 60.4783 4.82735 108.642
lradius 13.9197
lwrist 43.059
lhand -12.7506 36.649
lfingers 7.12502
lthumb 13.3336 66.2024
rfemur 2.31303 -8.06281 22.9353
rtibia 18.4908
rfoot -17.3585 -22.1089
rtoes -3.91412
lfemur -17.4267 -22.5666 -10.3709
ltibia 31.8469
lfoot -9.27331 -8.17704
ltoes -5.89212
3010
root 0.613268 15.8539 -0.327213 -3.36619 28.8132 -7.23919
lowerback 15.9045 6.85246 -6.37534
upperback 8.36725 8.24164 -7.05659
thorax 0.353324 4.18764 -5.19008
lowerneck -8.47654 -9.42359 -15.4342
upperneck 12.9938 -13.7503 19.7653
head 7.91507 -6.07233 7.67996
rclavicle -5.40694e-014 6.36111e-015
rhumerus 93.0522 30.7207 -754.06
rradius 1.0715
rwrist 676.256
rhand -17.7837 2.96189
rfingers 7.12502
rthumb 8.47905 -26.8479
lclavicle -5.40694e-014 6.36111e-015
lhumerus 60.0843 4.30973 109.776
lradius 14.0525
lwrist 42.1444
lhand -12.7478 36.6337
lfingers 7.12502
lthumb 13.3363 66.1869
rfemur 2.56326 -7.97633 22.792
rtibia 18.3672
rfoot -17.0364 -21.9552
rtoes -4.86141
lfemur -16.9584 -22.4609 -10.5686
ltibia 31.6898
lfoot -9.46155 -7.85831
ltoes -6.55069
3011
root 0.624827 15.855 -0.327259 -3.3761 28.4364 -7.01245
lowerback 15.4175 7.00955 -6.61018
upperback 8.32303 8.46566 -6.8857
thorax 0.508687 4.281 -4.85578
lowerneck -8.31994 -9.54835 -15.2856
upperneck 13.0169 -13.9616 19.7209
head 7.92005 -6.17585 7.61242
rclavicle 3.33958e-014 2.8625e-014
rhumerus 91.3309 30.5633 -756.225
rradius 1.44498
rwrist 677.943
rhand -17.9266 2.39002
rfingers 7.12502
rthumb 8.34121 -27.4253
lclavicle 3.33958e-014 2.8625e-014
lhumerus 59.9202 4.30238 111.026
lradius 13.9276
lwrist 40.9322
lhand -12.2397 36.5126
lfingers 7.12502
lthumb 13.826 66.0331
rfemur 2.80723 -7.87885 22.4873
rtibia 18.1626
rfoot -16.89 -21.7325
rtoes -4.82721
lfemur -16.5769 -22.3615 -10.9102
ltibia 31.5657
lfoot -9.62311 -7.59051
ltoes -7.0142
3012
root 0.631398 15.8584 -0.330673 -3.51234 28.0081 -7.04039
lowerback 15.1125 6.95522 -6.46387
upperback 8.20993 8.43376 -6.80184
thorax 0.546809 4.26374 -4.80709
lowerneck -8.40573 -9.57109 -15.2793
upperneck 13.1905 -14.021 19.7679
head 8.0072 -6.19075 7.62064
rclavicle 6.20208e-014 6.36111e-015
rhumerus 89.9751 30.5738 -758.467
rradius 1.90134
rwrist 679.651
rhand -17.9623 1.59133
rfingers 7.12502
rthumb 8.30672 -28.2253
lclavicle 6.20208e-014 6.36111e-015
lhumerus 60.1855 4.39304 111.484
lradius 13.3343
lwrist 40.3668
lhand -12.097 36.2832
lfingers 7.12502
lthumb 13.9636 65.7943
rfemur 3.02821 -7.64226 22.4801
rtibia 17.9489
rfoot -16.7681 -21.6094
rtoes -4.48511
lfemur -16.2164 -22.1413 -10.9589
ltibia 31.4248
lfoot -9.65457 -7.46742
ltoes -6.96676
3013
root 0.637318 15.8631 -0.333553 -3.63115 27.4642 -6.97635
lowerback 14.8893 6.80155 -6.21015
upperback 7.9992 8.26415 -6.85113
thorax 0.46739 4.18633 -4.95512
lowerneck -8.3697 -9.44234 -15.4071
upperneck 13.3902 -13.8777 19.8873
head 8.05665 -6.11775 7.71545
rclavicle 1.46306e-013 -1.27222e-014
rhumerus 88.739 30.9271 -760.853
rradius 2.25563
rwrist 681.689
rhand -17.9196 1.28337
rfingers 7.12502
rthumb 8.34792 -28.5317
lclavicle 1.46306e-013 -1.27222e-014
lhumerus 60.2756 4.43893 110.979
lradius 13.0138
lwrist 40.6935
lhand -12.2184 36.2693
lfingers 7.12502
lthumb 13.8466 65.7884
rfemur 3.2616 -7.31293 22.3979
rtibia 17.7541
rfoot -16.6175 -21.4163
rtoes -4.33591
lfemur -15.7551 -21.8846 -11.1061
ltibia 31.2508
lfoot -9.69875 -7.24743
ltoes -6.99833
3014
root 0.644448 15.8667 -0.334658 -3.79936 26.9128 -6.96827
lowerback 14.6717 6.52268 -5.85441
upperback 7.74477 7.93626 -6.89035
thorax 0.340037 4.03174 -5.12911
lowerneck -8.2353 -9.1791 -15.6957
upperneck 13.5669 -13.5301 20.0134
head 8.0511 -5.96233 7.87551
rclavicle 1.90833e-014 9.22361e-014
rhumerus 87.6766 31.4603 -763.212
rradius 2.61686
rwrist 683.716
rhand -17.8316 1.16651
rfingers 7.12502
rthumb 8.43287 -28.6451
lclavicle 1.90833e-014 9.22361e-014
lhumerus 60.1693 4.89481 110.524
lradius 13.0935
lwrist 40.8736
lhand -12.2613 36.2497
lfingers 7.12502
lthumb 13.8052 65.7716
rfemur 3.49837 -7.00713 22.357
rtibia 17.6051
rfoot -16.5315 -21.2158
rtoes -4.34955
lfemur -15.2657 -21.6491 -11.2099
ltibia 31.073
lfoot -9.72588 -7.06727
ltoes -6.63382
